<?xml version="1.0" encoding="UTF-8"?>
<svg id="Layer_1" data-name="Layer 1" xmlns="http://www.w3.org/2000/svg" version="1.1" viewBox="0 0 111.34 25.19">
  <defs>
    <style>
      .cls-1, .cls-2, .cls-3, .cls-4, .cls-5 {
        stroke-width: 0px;
      }

      .cls-1, .cls-3 {
        fill: #337edd;
      }

      .cls-2 {
        fill: #042d4d;
      }

      .cls-2, .cls-3 {
        fill-rule: evenodd;
      }

      .cls-4 {
        fill: #333;
      }

      .cls-5 {
        fill: #119dfc;
        isolation: isolate;
        opacity: .52;
      }
    </style>
  </defs>
  <path class="cls-4" d="M50.85,9.06c.76.33,1.4.82,1.89,1.5.42.57.68,1.15.76,1.76.1.6.14,1.59.14,2.95v6.98c0,1.1-.89,2-2,2h-.09c-1.1,0-2-.89-2-2v-7.3c0-.82-.14-1.48-.42-1.99-.36-.71-1.05-1.07-2.06-1.07s-1.84.36-2.39,1.06c-.54.7-.82,1.71-.82,3.02v6.27c0,1.1-.89,2-2,2h0c-1.1,0-2-.89-2-2V5.65c0-1.1.89-2,2-2h0c1.1,0,2,.89,2,2v5.28c.57-.88,1.24-1.51,2-1.86.75-.35,1.55-.53,2.39-.53.94,0,1.8.16,2.56.49h0Z"/>
  <path class="cls-4" d="M63.44,14.95c.75-.1,1.28-.21,1.6-.35.57-.24.86-.62.86-1.14,0-.62-.22-1.06-.66-1.29-.44-.23-1.08-.36-1.93-.36-.95,0-1.63.23-2.03.7-.21.26-.37.58-.48.97-.07.25-.3.43-.56.43h-2.72c-.36,0-.63-.32-.58-.67.16-1.03.5-1.91,1.06-2.62,1.06-1.34,2.88-2.01,5.46-2.01,1.67,0,3.17.33,4.48,1,1.3.66,1.95,1.92,1.95,3.76v7c0,.49,0,1.08.03,1.76.03.52.1.88.23,1.07.13.19.33.34.59.46h0c0,.32-.26.59-.59.59h-3.33c-.26,0-.49-.17-.56-.43-.04-.16-.08-.3-.1-.44-.04-.27-.09-.58-.11-.93-.56.6-1.19,1.11-1.92,1.53-.87.49-1.84.75-2.93.75-1.39,0-2.54-.39-3.44-1.18s-1.36-1.91-1.36-3.36c0-1.87.73-3.24,2.19-4.08.8-.46,1.98-.78,3.53-.98l1.37-.16v-.02ZM65.88,16.81c-.25.16-.51.29-.77.38s-.62.19-1.08.27l-.91.16c-.85.15-1.47.33-1.83.55-.62.36-.95.93-.95,1.69,0,.69.19,1.17.57,1.47s.85.45,1.4.45c.88,0,1.67-.25,2.41-.75s1.12-1.42,1.15-2.76v-1.48.02Z"/>
  <path class="cls-4" d="M75.27,3.66h0c1.08,0,1.96.88,1.96,1.96v9.18l4.5-5.15c.34-.38.82-.61,1.34-.61h0c1.56,0,2.36,1.87,1.28,2.99l-2.59,2.69,3.81,6.38c.82,1.38-.17,3.13-1.78,3.13h0c-.75,0-1.43-.4-1.8-1.05l-3.11-5.47-1.66,1.72v2.85c0,1.08-.88,1.96-1.96,1.96h0c-1.08,0-1.96-.88-1.96-1.96V5.62c0-1.08.88-1.96,1.96-1.96h0Z"/>
  <path class="cls-4" d="M97.78,8.61h0c.19.02.35.18.35.37v3.32c0,.22-.18.39-.41.37-.1,0-.18-.02-.27-.02-.2,0-.36-.02-.48-.02-1.61,0-2.68.52-3.24,1.57-.31.59-.46,1.49-.46,2.72v5.28c0,1.11-.9,2.01-2.01,2.01h0c-1.11,0-2.01-.9-2.01-2.01v-11.35c0-1.05.85-1.91,1.91-1.91h0c1.05,0,1.91.85,1.91,1.91v.75c.62-1.02,1.15-1.71,1.61-2.09.75-.62,1.72-.94,2.92-.94h.19v.02Z"/>
  <path class="cls-5" d="M102.76,7.15h-.36c-1.02,0-1.84-.84-1.84-1.88h0c0-1.04.88-1.88,1.84-1.88h.36c.88,0,1.84.84,1.84,1.88h0c0,1.04-.82,1.88-1.84,1.88Z"/>
  <rect class="cls-1" x="100.51" y="8.97" width="4.04" height="15.26" rx="1.84" ry="1.84"/>
  <g>
    <g>
      <polygon class="cls-4" points="9.3 20.52 8.54 20.52 4.83 24.24 5.58 24.24 9.3 20.52"/>
      <polygon class="cls-4" points="7.32 20.52 6.56 20.52 2.85 24.24 3.62 24.24 7.32 20.52"/>
      <path class="cls-4" d="M11.87,15.22h.75l2.07-2.07c-.03-.2-.1-.39-.19-.56l-2.64,2.64Z"/>
      <path class="cls-4" d="M10.66,15.22l3.28-3.28c-.16-.1-.33-.19-.52-.24l-3.52,3.52h.76Z"/>
      <path class="cls-4" d="M15.74,21.21l-3.02,3.02h.75l2.53-2.53c-.06-.17-.16-.34-.27-.49Z"/>
      <path class="cls-4" d="M1.22,23.89c.15.11.32.2.5.25l3.63-3.63h-.65v-.11l-3.48,3.48h0Z"/>
      <path class="cls-4" d="M14.75,24.19c.66-.16,1.18-.68,1.34-1.34,0,0-1.34,1.34-1.34,1.34Z"/>
      <polygon class="cls-4" points="11.28 20.52 10.51 20.52 6.8 24.24 7.56 24.24 11.28 20.52"/>
      <path class="cls-4" d="M4.7,19.2v-3.98h3.98l3.58-3.58h-7.57v-4.38h9.06c1.03,0,1.87-.83,1.87-1.87h0c0-.99-.81-1.8-1.8-1.8H2.28c-.99,0-1.8.81-1.8,1.8v17.06c0,.29.07.55.18.79l4.03-4.03Z"/>
      <polygon class="cls-4" points="13.25 20.52 12.49 20.52 8.78 24.24 9.53 24.24 13.25 20.52"/>
      <path class="cls-4" d="M15.07,20.68c-.19-.09-.39-.14-.61-.15l-3.7,3.7h.75s3.56-3.56,3.56-3.56Z"/>
    </g>
    <g>
      <path class="cls-4" d="M25.04,7.97c.49-.45,1.05-.75,1.68-.93l3.6-3.6c-.21-.04-.43-.08-.64-.11l-4.64,4.64Z"/>
      <path class="cls-4" d="M31.86,3.88c-.18-.07-.36-.14-.56-.2l-3.2,3.2c.24,0,.49.02.71.05,0,0,3.05-3.05,3.05-3.05Z"/>
      <path class="cls-4" d="M28.58,3.22c-.24,0-.49-.02-.74-.02l-9.16,9.16c-.03.27-.04.54-.06.82,0,0,9.96-9.96,9.96-9.96Z"/>
      <path class="cls-4" d="M26.55,3.28c-.31.03-.62.09-.91.16l-6.53,6.53c-.09.32-.16.65-.23.99l7.68-7.68Z"/>
      <path class="cls-4" d="M19.86,7.98l3.91-3.91c-.85.42-1.62.97-2.32,1.68-.64.65-1.17,1.4-1.6,2.23Z"/>
      <path class="cls-4" d="M23.07,12.67c.03-.3.07-.59.11-.87l-4.46,4.46c.03.23.06.44.1.66l4.24-4.24h0Z"/>
      <path class="cls-4" d="M35.34,6.62c-.43-.61-.91-1.13-1.46-1.57l-2.84,2.84c.12.1.23.22.34.35.23.28.44.62.63,1.03.33.74,1.07,1.21,1.88,1.21h.12c1.58,0,2.58-1.7,1.8-3.08-.15-.26-.3-.51-.48-.77h0Z"/>
      <path class="cls-4" d="M33.91,17.2h0c-.83,0-1.59.5-1.91,1.28-.19.45-.41.83-.64,1.12-.77.99-1.9,1.48-3.38,1.48s-2.63-.57-3.57-1.73c-.69-.85-1.13-2.03-1.31-3.52l-3.57,3.57c.4.96.93,1.81,1.58,2.55,1.68,1.91,3.99,2.85,6.92,2.85,2.38,0,4.32-.7,5.84-2.12.77-.72,1.41-1.55,1.88-2.49.69-1.37-.3-3-1.85-3h0Z"/>
      <path class="cls-4" d="M23.01,14.7c0-.18,0-.36,0-.55v-.2l-3.96,3.96c.05.2.1.4.16.59l3.8-3.8h0Z"/>
      <path class="cls-4" d="M32.7,4.27l-2.9,2.9c.18.06.36.14.53.23l2.85-2.85c-.16-.1-.31-.19-.48-.28Z"/>
      <path class="cls-4" d="M23.63,10.14c.19-.5.43-.96.71-1.36.13-.19.28-.36.43-.53l-6.16,6.16c0,.25.02.49.03.73l5-5Z"/>
    </g>
  </g>
  <path class="cls-2" d="M101.57,5.06c-.03.1-.06.2-.07.31,0,.1,0,.21.03.31.03.16.1.29.2.42s.22.22.36.29c.03.02.04.05.03.08s-.05.04-.08.03c-.16-.08-.29-.19-.4-.32s-.18-.29-.23-.46c-.03-.11-.03-.23-.03-.36s.03-.23.08-.35c0-.03.04-.04.08-.03.03,0,.04.04.03.08"/>
  <path class="cls-2" d="M101.68,4.86s-.03.03-.03.05c-.02.03-.05.04-.09.03-.03-.02-.04-.05-.03-.09,0-.02.03-.04.03-.06.02-.02.03-.04.04-.06.02-.03.06-.03.09,0s.03.06,0,.09c-.02.02-.03.03-.03.05h0Z"/>
  <path class="cls-3" d="M102.94,3.47l-.17.32.29,2.5-.43.37-.43-.37.29-2.5-.17-.32.03-.16c-.45-.08-.86-.33-1.12-.71-1.03.67-1.45,2-.96,3.15.51,1.2,1.84,1.82,3.09,1.46,1.25-.37,2.02-1.62,1.8-2.9-.13-.72-.55-1.33-1.13-1.7-.22.31-.53.55-.91.66-.07.02-.14.03-.21.04,0,0,.03.16.03.16Z"/>
  <path class="cls-3" d="M103,2.83c-.61.18-1.26-.12-1.51-.71-.25-.59-.02-1.27.54-1.58.16-.1.35-.15.54-.16.63-.04,1.2.41,1.31,1.03.11.62-.27,1.24-.88,1.42"/>
  <path class="cls-3" d="M98.7,5.58c-.39-1.89.62-3.75,2.33-4.49-.11.31-.13.66-.03,1-1.09.68-1.7,1.99-1.43,3.31.39,1.68,2.06,2.73,3.75,2.36,1.68-.38,2.75-2.05,2.39-3.73-.2-.84-.73-1.52-1.41-1.93.06-.23.08-.49.03-.74-.02-.09-.03-.18-.07-.26,1.11.49,1.99,1.47,2.3,2.74.19.87.08,1.73-.25,2.48.04.05.06.11.06.17l.46.27h0c.03-.05.08-.07.12-.04l.23.13c.07-.04.16-.04.23,0l3.44,1.98c-.02.4-.22.7-.54.94l-3.44-1.98c-.08-.04-.11-.12-.11-.2l-.23-.13s-.06-.08-.03-.12h0l-.46-.28c-.06.03-.12.04-.19.03-.56.75-1.37,1.31-2.35,1.54-2.15.49-4.29-.86-4.8-3.01"/>
</svg>